<?xml version="1.0" encoding="UTF-8" standalone="no"?>
<svg
   xmlns:dc="http://purl.org/dc/elements/1.1/"
   xmlns:cc="http://creativecommons.org/ns#"
   xmlns:rdf="http://www.w3.org/1999/02/22-rdf-syntax-ns#"
   xmlns:svg="http://www.w3.org/2000/svg"
   xmlns="http://www.w3.org/2000/svg"
   xmlns:sodipodi="http://sodipodi.sourceforge.net/DTD/sodipodi-0.dtd"
   xmlns:inkscape="http://www.inkscape.org/namespaces/inkscape"
   version="1.1"
   id="final"
   x="0px"
   y="0px"
   width="876.567px"
   height="252.273px"
   viewBox="-102.266 0 876.567 252.273"
   enable-background="new -102.266 0 876.567 252.273"
   xml:space="preserve"
   sodipodi:docname="Efron_dice.svg"
   inkscape:version="1.0.1 (3bc2e813f5, 2020-09-07)"><metadata
   id="metadata1224"><rdf:RDF><cc:Work
       rdf:about=""><dc:format>image/svg+xml</dc:format><dc:type
         rdf:resource="http://purl.org/dc/dcmitype/StillImage" /></cc:Work></rdf:RDF></metadata><defs
   id="defs1222" /><sodipodi:namedview
   pagecolor="#ffffff"
   bordercolor="#666666"
   borderopacity="1"
   objecttolerance="10"
   gridtolerance="10"
   guidetolerance="10"
   inkscape:pageopacity="0"
   inkscape:pageshadow="2"
   inkscape:window-width="1902"
   inkscape:window-height="829"
   id="namedview1220"
   showgrid="false"
   inkscape:zoom="1.5104379"
   inkscape:cx="438.28351"
   inkscape:cy="126.1365"
   inkscape:window-x="0"
   inkscape:window-y="0"
   inkscape:window-maximized="0"
   inkscape:current-layer="final" />
<g
   id="blue_1_">
	<g
   id="XMLID_6_">
		<g
   id="g1074">
			<polygon
   fill="#A3A1D0"
   points="515.552,39.115 515.552,159.143 457.706,210.835 457.287,210.835 457.287,92.261 457.706,91.867         "
   id="polygon1068" />
			<polygon
   fill="#C9C5E3"
   points="515.552,37.909 515.552,39.115 457.706,91.867 342.626,92.064 342.232,91.646 399.858,37.909         "
   id="polygon1070" />
			<polygon
   fill="#777ABA"
   points="342.626,92.064 457.706,91.867 457.287,92.261 457.287,210.835 342.011,210.835 342.011,91.867      342.232,91.646    "
   id="polygon1072" />
		</g>
		<g
   id="g1082">
			<polygon
   fill="none"
   stroke="#000000"
   points="515.552,39.115 515.552,37.909 399.858,37.909 342.232,91.646 342.011,91.867      342.011,210.835 457.287,210.835 457.706,210.835 515.552,159.143    "
   id="polygon1076" />
			<line
   fill="none"
   stroke="#000000"
   x1="342.626"
   y1="92.064"
   x2="457.706"
   y2="91.867"
   id="line1078" />
			<polyline
   fill="none"
   stroke="#000000"
   points="515.75,38.943 515.552,39.115 457.706,91.867 457.287,92.261 457.287,210.835         "
   id="polyline1080" />
		</g>
	</g>
</g>
<g
   id="green_1_">
	<g
   id="XMLID_5_">
		<g
   id="g1092">
			<polygon
   fill="#B3D99C"
   points="311.241,39.115 311.241,159.143 253.395,210.835 252.976,210.835 252.976,92.261 253.395,91.867         "
   id="polygon1086" />
			<polygon
   fill="#CEE6C0"
   points="311.241,37.909 311.241,39.115 253.395,91.867 138.315,92.064 137.921,91.646 195.547,37.909         "
   id="polygon1088" />
			<polygon
   fill="#99CD6F"
   points="253.395,91.867 252.976,92.261 252.976,210.835 137.7,210.835 137.7,91.867 137.921,91.646      138.315,92.064    "
   id="polygon1090" />
		</g>
		<g
   id="g1100">
			<polygon
   fill="none"
   stroke="#000000"
   points="311.241,39.115 311.241,37.909 195.547,37.909 137.921,91.646 137.7,91.867      137.7,210.835 252.976,210.835 253.395,210.835 311.241,159.143    "
   id="polygon1094" />
			<line
   fill="none"
   stroke="#000000"
   x1="138.315"
   y1="92.064"
   x2="253.395"
   y2="91.867"
   id="line1096" />
			<polyline
   fill="none"
   stroke="#000000"
   points="311.438,38.943 311.241,39.115 253.395,91.867 252.976,92.261 252.976,210.835         "
   id="polyline1098" />
		</g>
	</g>
</g>
<g
   id="Pink_1_">
	<g
   id="XMLID_4_">
		<g
   id="g1110">
			<polygon
   fill="#F7A5A7"
   points="106.93,39.115 106.93,159.143 49.083,210.835 48.665,210.835 48.665,92.261 49.083,91.867    "
   id="polygon1104" />
			<polygon
   fill="#FAC6C7"
   points="106.93,37.909 106.93,39.115 49.083,91.867 -65.996,92.064 -66.39,91.646 -8.764,37.909    "
   id="polygon1106" />
			<polygon
   fill="#F37D80"
   points="-65.996,92.064 49.083,91.867 48.665,92.261 48.665,210.835 -66.611,210.835 -66.611,91.867      -66.39,91.646    "
   id="polygon1108" />
		</g>
		<g
   id="g1118">
			<polygon
   fill="none"
   stroke="#000000"
   points="106.93,39.115 106.93,37.909 -8.764,37.909 -66.39,91.646 -66.611,91.867      -66.611,210.835 48.665,210.835 49.083,210.835 106.93,159.143    "
   id="polygon1112" />
			<line
   fill="none"
   stroke="#000000"
   x1="-65.996"
   y1="92.064"
   x2="49.083"
   y2="91.867"
   id="line1114" />
			<polyline
   fill="none"
   stroke="#000000"
   points="107.127,38.943 106.93,39.115 49.083,91.867 48.665,92.261 48.665,210.835    "
   id="polyline1116" />
		</g>
	</g>
</g>
<g
   id="purple">
	<g
   id="XMLID_11_">
		<g
   id="g1128">
			<polygon
   fill="#d178ff"
   points="735.277,190.36 642.404,222.198 642.404,99.24 735.277,67.401 "
   id="polygon1122" />
			<polygon
   fill="#f2daff"
   points="642.404,99.24 554.319,66.407 647.847,34.49 735.277,67.401 "
   id="polygon1124" />
			<polygon
   fill="#c24cff"
   points="642.404,222.198 554.319,189.705 554.319,66.407 642.404,99.24 "
   id="polygon1126" />
		</g>
		<g
   id="g1136">
			<polygon
   fill="none"
   stroke="#231f20"
   points="647.847,34.49 735.277,67.401 735.277,190.36 642.404,222.198 554.319,189.705 554.319,66.407 "
   id="polygon1130" />
			<polyline
   fill="none"
   stroke="#231f20"
   points="735.277,67.401 642.404,99.24 554.319,66.407    "
   id="polyline1132" />
			<line
   fill="none"
   stroke="#231f20"
   x1="642.40399"
   y1="99.239998"
   x2="642.40399"
   y2="222.198"
   id="line1134" />
		</g>
	</g>
	<g
   id="text_copy_3_1_">
		<g
   id="g1145">
			<g
   id="g1143">
				<g
   id="g1141">
					<path
   d="m 610.512,116.143 0.76,7.235 -17.208,-5.052 -0.021,15.827 c 1.023,0.113 1.976,0.205 3.641,0.693 3.467,1.018 7.047,3.112 10.067,6.274 3.836,3.873 7.328,10.206 8.17,18.223 1.304,12.426 -4.731,19.663 -14.511,16.792 -4.929,-1.446 -9.293,-4.628 -11.652,-7.22 l 0.839,-6.105 c 2.038,2.115 5.919,5.154 10.013,6.355 5.758,1.69 10.132,-2.146 9.239,-10.65 -0.935,-8.24 -5.436,-15.252 -14.45,-17.898 -2.572,-0.755 -4.541,-0.95 -6.176,-1.145 l -0.285,-29.664 z"
   id="path1139" />
				</g>
			</g>
		</g>
	</g>
	<g
   id="text_copy_3">
		<g
   id="g1154">
			<g
   id="g1152">
				<g
   id="g1150">
					<polygon
   points="694.812,117.309 694.692,117.356 687.878,126.165 686.845,119.83 695.406,108.822 699.933,107.045 699.99,172.415 694.862,174.428 "
   id="polygon1148" />
				</g>
			</g>
		</g>
	</g>
</g>
<g
   id="text_2_">
	<rect
   x="172.98399"
   y="116.063"
   fill="none"
   width="52.513"
   height="69.749001"
   id="rect1158" />
	<text
   transform="translate(172.9849,178.9807)"
   font-family="MyriadPro-Regular"
   font-size="88.6169px"
   id="text1160">8</text>
	<rect
   x="-30.507"
   y="115.245"
   fill="none"
   width="48.410999"
   height="70.565002"
   id="rect1162" />
	<text
   transform="translate(-30.5078,178.1624)"
   font-family="MyriadPro-Regular"
   font-size="88.6169px"
   id="text1164">9</text>
	<rect
   x="384.67999"
   y="113.603"
   fill="none"
   width="54.154999"
   height="77.950996"
   id="rect1166" />
	<text
   transform="translate(380.6797,181.5208)"
   font-family="MyriadPro-Regular"
   font-size="88.6169px"
   id="text1168">7</text>
	<g
   id="g1176">
		<g
   id="g1174">
			<g
   id="g1172">
				<polygon
   points="229.395,52.336 218.289,54.761 219.447,51.906 233.379,48.879 239.243,48.982 215.104,76.494 208.454,76.378 229.545,52.339 "
   id="polygon1170" />
			</g>
		</g>
	</g>
	<g
   id="g1184">
		<g
   id="g1182">
			<g
   id="g1180">
				<path
   d="m 26.193,47.63 c 11.356,0.276 13.03,4.293 10.012,8.074 -3.895,4.879 -14.096,8.648 -29.493,13.739 l -5.786,1.85 -0.066,0.083 23.701,0.576 -2.369,2.968 -33.68,-0.819 1.752,-2.195 7.779,-2.588 c 18.592,-6.095 27.407,-9.359 30.669,-13.341 2.142,-2.683 1.523,-5.223 -6.355,-5.414 -4.788,-0.117 -9.732,1.004 -12.973,1.96 L 9.12,49.95 c 4.886,-1.459 10.984,-2.468 17.073,-2.32 z"
   id="path1178" />
			</g>
		</g>
	</g>
	<g
   id="g1192">
		<g
   id="g1190">
			<g
   id="g1188">
				<path
   d="m 440.496,47.532 c 9.978,0.174 11.652,3.52 8.697,6.912 -2.504,2.874 -7.76,5.271 -15.073,6.404 l -0.076,0.087 c 5.632,0.798 8.458,3.459 5.054,7.367 -3.895,4.47 -13.608,8.268 -25.771,8.055 -5.693,-0.1 -9.819,-1.176 -11.527,-2.123 l 4.411,-2.885 c 1.353,0.719 4.938,1.871 9.696,1.954 8.813,0.154 14.23,-2.891 16.17,-5.208 3.333,-3.909 -1.606,-5.695 -8.234,-5.811 l -3.816,-0.066 2.47,-2.835 3.817,0.067 c 4.987,0.087 12.542,-1.221 15.422,-4.526 1.944,-2.232 1.093,-4.253 -5.227,-4.363 -4.055,-0.07 -8.809,0.848 -11.743,1.667 l 0.604,-2.777 c 3.585,-1.027 9.662,-2.014 15.126,-1.919 z"
   id="path1186" />
			</g>
		</g>
	</g>
	<g
   id="g1200">
		<g
   id="g1198">
			<g
   id="g1196">
				<path
   d="m 87.456,120.729 3.042,-2.941 0.324,5.667 -3.042,2.941 0.832,14.528 -2.773,2.683 -0.832,-14.527 -10.095,9.767 -0.272,-4.759 7.742,-43.442 3.177,-3.074 z M 83.664,105.6 c -0.16,-2.784 -0.289,-5.605 -0.381,-8.463 l -0.098,0.095 c -0.49,3.765 -0.895,6.584 -1.355,9.624 l -4.277,23.288 0.009,0.159 7.122,-6.89 -1.02,-17.813"
   id="path1194" />
			</g>
		</g>
	</g>
	<g
   id="g1208">
		<g
   id="g1206">
			<g
   id="g1204">
				<path
   d="m 288.841,115.833 c 3.888,-3.753 7.062,0.409 7.735,10.826 0.631,9.76 -1.521,21.418 -6.083,25.823 -4.693,4.532 -8.34,-1.358 -9.236,-15.215 -0.679,-10.492 0.34,-20.277 2.162,-27.61 1.541,-6.106 3.798,-11.161 6.517,-14.653 0.857,-1.182 1.597,-1.984 2.136,-2.504 l 0.382,5.902 c -0.141,0.118 -0.292,0.254 -0.448,0.405 -0.524,0.506 -1.127,1.199 -1.76,2.082 -4.541,6.385 -6.468,17.049 -6.409,26.308 l 0.099,-0.097 c 0.831,-4.369 2.473,-8.917 4.905,-11.267 z m 1.326,31.038 c 2.535,-2.448 3.924,-9.274 3.43,-16.901 -0.493,-7.627 -2.581,-10.486 -5.317,-7.842 -1.788,1.726 -3.271,6.033 -3.83,10.669 -0.149,1.012 -0.218,2.21 -0.132,3.526 0.635,8.701 2.708,13.583 5.815,10.582 l 0.034,-0.034"
   id="path1202" />
			</g>
		</g>
	</g>
	<g
   id="g1216">
		<g
   id="g1214">
			<g
   id="g1212">
				<path
   d="m 494.22,90.731 0.394,6.07 -8.378,8.091 0.042,14.512 c 0.492,-0.652 0.956,-1.276 1.77,-2.063 1.688,-1.63 3.435,-2.352 4.913,-1.693 1.876,0.71 3.593,3.937 4.027,10.655 0.674,10.417 -2.235,21.499 -6.998,26.097 -2.397,2.316 -4.531,2.634 -5.686,2.003 l 0.388,-6.202 c 0.997,0.426 2.895,0.337 4.888,-1.589 2.803,-2.706 4.917,-9.455 4.456,-16.583 -0.479,-6.854 -2.691,-9.945 -7.083,-5.704 -1.248,1.205 -2.208,2.478 -3.002,3.51 l -0.234,-26.96 z"
   id="path1210" />
			</g>
		</g>
	</g>
</g>
<text
   font-family="MyriadPro-Regular"
   font-size="52.6871px"
   id="text1160-8"
   x="320.68878"
   y="-156.45773"
   transform="matrix(1.466749,0.41960827,-0.84747997,0.43933242,0,0)"
   style="stroke-width:0.594547">5</text></svg>
